<?xml version="1.0" encoding="UTF-8" standalone="no"?>
<!-- Created with Inkscape (http://www.inkscape.org/) -->

<svg
   xmlns:dc="http://purl.org/dc/elements/1.1/"
   xmlns:cc="http://creativecommons.org/ns#"
   xmlns:rdf="http://www.w3.org/1999/02/22-rdf-syntax-ns#"
   xmlns:svg="http://www.w3.org/2000/svg"
   xmlns="http://www.w3.org/2000/svg"
   xmlns:sodipodi="http://sodipodi.sourceforge.net/DTD/sodipodi-0.dtd"
   xmlns:inkscape="http://www.inkscape.org/namespaces/inkscape"
   width="66.17115mm"
   height="10.563787mm"
   viewBox="0 0 66.17115 10.563787"
   version="1.1"
   id="svg4596"
   inkscape:version="0.92.1 r15371"
   sodipodi:docname="archipelago.svg">
  <defs
     id="defs4590" />
  <sodipodi:namedview
     id="base"
     pagecolor="#ffffff"
     bordercolor="#666666"
     borderopacity="1.0"
     inkscape:pageopacity="0.0"
     inkscape:pageshadow="2"
     inkscape:zoom="0.9899495"
     inkscape:cx="243.23246"
     inkscape:cy="-64.38128"
     inkscape:document-units="mm"
     inkscape:current-layer="text4739"
     showgrid="false"
     inkscape:window-width="1366"
     inkscape:window-height="706"
     inkscape:window-x="-8"
     inkscape:window-y="536"
     inkscape:window-maximized="1" />
  <metadata
     id="metadata4593">
    <rdf:RDF>
      <cc:Work
         rdf:about="">
        <dc:format>image/svg+xml</dc:format>
        <dc:type
           rdf:resource="http://purl.org/dc/dcmitype/StillImage" />
        <dc:title />
      </cc:Work>
    </rdf:RDF>
  </metadata>
  <g
     inkscape:label="Layer 1"
     inkscape:groupmode="layer"
     id="layer1"
     transform="translate(158.57367,-16.55144)">
    <g
       aria-label="rchipelago."
       style="font-style:normal;font-variant:normal;font-weight:normal;font-stretch:normal;font-size:9.78535843px;line-height:1.25;font-family:Comfortaa;-inkscape-font-specification:Comfortaa;letter-spacing:0px;word-spacing:0px;fill:#333333;fill-opacity:1;stroke:none;stroke-width:0.24463394"
       id="text4739">
      <path
         d="m -145.40874,19.412444 q 0.41099,0 0.64583,0.107639 0.24464,0.107639 0.24464,0.303346 0,0.05871 -0.01,0.08807 -0.0391,0.136995 -0.12721,0.185922 -0.0783,0.04893 -0.22506,0.04893 -0.0881,0 -0.30335,-0.01957 -0.0783,-0.0098 -0.23485,-0.0098 -0.7339,0 -1.20359,0.391415 -0.45992,0.391414 -0.45992,1.017677 v 2.925822 q 0,0.176136 -0.0978,0.27399 -0.0978,0.09785 -0.27399,0.09785 -0.17614,0 -0.27399,-0.09785 -0.0978,-0.09785 -0.0978,-0.27399 V 19.843 q 0,-0.176136 0.0978,-0.27399 0.0978,-0.09785 0.27399,-0.09785 0.17614,0 0.27399,0.09785 0.0978,0.09785 0.0978,0.27399 v 0.430556 q 0.28378,-0.410985 0.72412,-0.636048 0.44034,-0.225064 0.94918,-0.225064 z"
         style="font-style:normal;font-variant:normal;font-weight:normal;font-stretch:normal;font-family:Comfortaa;-inkscape-font-specification:Comfortaa;letter-spacing:0px;fill:#333333;stroke-width:0.24463394"
         id="path4504" />
      <path
         d="m -141.32901,24.872674 q -0.76326,0 -1.36995,-0.352272 -0.60669,-0.362059 -0.95897,-0.978536 -0.34248,-0.626263 -0.34248,-1.389521 0,-0.782829 0.3327,-1.399306 0.3327,-0.626263 0.91982,-0.978536 0.58712,-0.352273 1.32103,-0.352273 1.22317,0 1.98642,0.939394 0.0783,0.08807 0.0783,0.205493 0,0.156565 -0.16635,0.27399 -0.0881,0.05871 -0.18593,0.05871 -0.14678,0 -0.28377,-0.14678 -0.29356,-0.322917 -0.64583,-0.479483 -0.35228,-0.166351 -0.78283,-0.166351 -0.5382,0 -0.95897,0.264205 -0.42077,0.254419 -0.65562,0.724116 -0.22506,0.469697 -0.22506,1.056819 0,0.577336 0.24463,1.047033 0.24464,0.459912 0.68498,0.724117 0.44034,0.264204 1.00789,0.264204 0.78283,0 1.26231,-0.42077 0.12721,-0.107639 0.26421,-0.107639 0.11742,0 0.21527,0.07828 0.137,0.117424 0.137,0.264205 0,0.127209 -0.0978,0.215277 -0.70455,0.655619 -1.78094,0.655619 z"
         style="font-style:normal;font-variant:normal;font-weight:normal;font-stretch:normal;font-family:Comfortaa;-inkscape-font-specification:Comfortaa;letter-spacing:0px;fill:#333333;stroke-width:0.24463394"
         id="path4506" />
      <path
         d="m -135.35306,19.412444 q 0.69476,0 1.24274,0.293561 0.55777,0.293561 0.8709,0.861112 0.31313,0.557765 0.31313,1.340594 v 2.544193 q 0,0.156566 -0.10764,0.264205 -0.10764,0.107639 -0.2642,0.107639 -0.16636,0 -0.274,-0.107639 -0.10763,-0.107639 -0.10763,-0.264205 v -2.544193 q 0,-0.870897 -0.48927,-1.321024 -0.47948,-0.459911 -1.26231,-0.459911 -0.47949,0 -0.8709,0.185921 -0.38163,0.185922 -0.60669,0.518624 -0.22507,0.322917 -0.22507,0.724117 v 2.896466 q 0,0.166351 -0.10763,0.27399 -0.0979,0.09785 -0.26421,0.09785 -0.16635,0 -0.27399,-0.09785 -0.10764,-0.107639 -0.10764,-0.27399 v -6.888892 q 0,-0.166351 0.10764,-0.27399 0.10764,-0.107639 0.27399,-0.107639 0.16635,0 0.26421,0.107639 0.10763,0.107639 0.10763,0.27399 v 2.622476 q 0.32292,-0.362059 0.78283,-0.567551 0.45992,-0.205493 0.99811,-0.205493 z"
         style="font-style:normal;font-variant:normal;font-weight:normal;font-stretch:normal;font-family:Comfortaa;-inkscape-font-specification:Comfortaa;letter-spacing:0px;fill:#333333;stroke-width:0.24463394"
         id="path4508" />
      <path
         d="m -130.7174,24.823748 q -0.16635,0 -0.27399,-0.107639 -0.10764,-0.107639 -0.10764,-0.27399 v -4.589333 q 0,-0.166352 0.10764,-0.27399 0.10764,-0.107639 0.27399,-0.107639 0.16635,0 0.26421,0.107639 0.10763,0.107638 0.10763,0.27399 v 4.589333 q 0,0.166351 -0.10763,0.27399 -0.0979,0.107639 -0.26421,0.107639 z m -0.01,-6.370269 q -0.22507,0 -0.38163,-0.156565 -0.14678,-0.156566 -0.14678,-0.381629 0,-0.234849 0.15656,-0.381629 0.15657,-0.146781 0.38163,-0.146781 0.21528,0 0.37184,0.146781 0.15657,0.14678 0.15657,0.381629 0,0.225063 -0.15657,0.381629 -0.15656,0.156565 -0.38162,0.156565 z"
         style="font-style:normal;font-variant:normal;font-weight:normal;font-stretch:normal;font-family:Comfortaa;-inkscape-font-specification:Comfortaa;letter-spacing:0px;fill:#333333;stroke-width:0.24463394"
         id="path4510" />
      <path
         d="m -125.70669,19.42223 q 0.76326,0 1.37974,0.362058 0.62626,0.352273 0.97854,0.978536 0.36205,0.626263 0.36205,1.389521 0,0.763258 -0.35227,1.389521 -0.34249,0.616477 -0.94918,0.978536 -0.59691,0.352272 -1.34059,0.352272 -0.63605,0 -1.16446,-0.264204 -0.52841,-0.27399 -0.8709,-0.743687 v 2.86711 q 0,0.166351 -0.10764,0.27399 -0.10763,0.107639 -0.27399,0.107639 -0.16635,0 -0.27399,-0.107639 -0.0978,-0.107639 -0.0978,-0.27399 v -2.191921 q -0.01,-0.02936 -0.01,-0.08807 v -2.299559 q 0,-0.763258 0.35228,-1.389521 0.36206,-0.626263 0.97853,-0.978536 0.62627,-0.362058 1.38952,-0.362058 z m 0,4.765469 q 0.55777,0 1.0079,-0.264204 0.45991,-0.264205 0.71433,-0.724117 0.2642,-0.469697 0.2642,-1.047033 0,-0.577336 -0.2642,-1.037248 -0.25442,-0.469697 -0.71433,-0.733902 -0.45013,-0.27399 -1.0079,-0.27399 -0.55776,0 -1.00789,0.27399 -0.45012,0.264205 -0.71433,0.733902 -0.25442,0.459912 -0.25442,1.037248 0,0.166351 0.01,0.244634 0.01,0.01957 0.01,0.04893 0.0979,0.763257 0.63605,1.252525 0.54798,0.489268 1.32102,0.489268 z"
         style="font-style:normal;font-variant:normal;font-weight:normal;font-stretch:normal;font-family:Comfortaa;-inkscape-font-specification:Comfortaa;letter-spacing:0px;fill:#333333;stroke-width:0.24463394"
         id="path4512" />
      <path
         d="m -119.22847,19.42223 q 0.72411,0 1.28188,0.342487 0.55777,0.332703 0.86111,0.929609 0.31313,0.596907 0.31313,1.360165 0,0.156566 -0.0978,0.25442 -0.0979,0.08807 -0.25442,0.08807 h -3.95328 q 0.0783,0.802399 0.62626,1.301452 0.54798,0.499054 1.36995,0.499054 0.35227,0 0.70454,-0.117425 0.36206,-0.127209 0.57734,-0.313131 0.12721,-0.09785 0.2642,-0.09785 0.10764,0 0.21528,0.07828 0.12721,0.117425 0.12721,0.264205 0,0.12721 -0.10764,0.225063 -0.32291,0.27399 -0.82197,0.459912 -0.49905,0.176136 -0.95896,0.176136 -0.78283,0 -1.39931,-0.342487 -0.61648,-0.352273 -0.96875,-0.968751 -0.34249,-0.626263 -0.34249,-1.409091 0,-0.792614 0.32292,-1.409092 0.3327,-0.626263 0.91004,-0.96875 0.58712,-0.352273 1.33081,-0.352273 z m 0,0.67519 q -0.74369,0 -1.23296,0.459911 -0.48927,0.459912 -0.5969,1.213385 h 3.58144 q -0.0783,-0.753473 -0.54798,-1.213385 -0.4697,-0.459911 -1.2036,-0.459911 z"
         style="font-style:normal;font-variant:normal;font-weight:normal;font-stretch:normal;font-family:Comfortaa;-inkscape-font-specification:Comfortaa;letter-spacing:0px;fill:#333333;stroke-width:0.24463394"
         id="path4514" />
      <path
         d="m -114.35261,24.823748 q -0.59691,0 -0.97854,-0.469698 -0.37184,-0.479482 -0.37184,-1.223169 v -5.577655 q 0,-0.166351 0.10764,-0.264204 0.10764,-0.107639 0.2642,-0.107639 0.16635,0 0.26421,0.107639 0.10764,0.09785 0.10764,0.264204 v 5.577655 q 0,0.42077 0.16635,0.684975 0.17613,0.264204 0.44034,0.264204 h 0.24463 q 0.14678,0 0.23485,0.107639 0.0881,0.09785 0.0881,0.264205 0,0.166351 -0.12721,0.27399 -0.11742,0.09785 -0.31313,0.09785 z"
         style="font-style:normal;font-variant:normal;font-weight:normal;font-stretch:normal;font-family:Comfortaa;-inkscape-font-specification:Comfortaa;letter-spacing:0px;fill:#333333;stroke-width:0.24463394"
         id="path4516" />
      <path
         d="m -110.60528,19.42223 q 0.76326,0 1.37974,0.362058 0.62626,0.352273 0.97853,0.978536 0.36206,0.626263 0.36206,1.389521 v 2.299559 q 0,0.156566 -0.10764,0.264205 -0.10764,0.107639 -0.27399,0.107639 -0.16635,0 -0.27399,-0.09785 -0.10764,-0.107639 -0.10764,-0.27399 v -0.587121 q -0.34249,0.469697 -0.87089,0.743687 -0.52841,0.264204 -1.16446,0.264204 -0.74369,0 -1.35038,-0.352272 -0.59691,-0.362059 -0.94918,-0.978536 -0.34249,-0.626263 -0.34249,-1.389521 0,-0.763258 0.35227,-1.389521 0.36206,-0.626263 0.97854,-0.978536 0.62626,-0.362058 1.38952,-0.362058 z m 0,4.765469 q 0.55777,0 1.00789,-0.264204 0.45013,-0.264205 0.70455,-0.724117 0.2642,-0.469697 0.2642,-1.047033 0,-0.577336 -0.2642,-1.037248 -0.25442,-0.469697 -0.70455,-0.733902 -0.45012,-0.27399 -1.00789,-0.27399 -0.55776,0 -1.01768,0.27399 -0.45012,0.264205 -0.71433,0.733902 -0.25442,0.459912 -0.25442,1.037248 0,0.577336 0.25442,1.047033 0.26421,0.459912 0.71433,0.724117 0.45992,0.264204 1.01768,0.264204 z"
         style="font-style:normal;font-variant:normal;font-weight:normal;font-stretch:normal;font-family:Comfortaa;-inkscape-font-specification:Comfortaa;letter-spacing:0px;fill:#333333;stroke-width:0.24463394"
         id="path4518" />
      <path
         d="m -103.97341,19.42223 q 0.78283,0 1.39931,0.352273 0.61648,0.342487 0.96875,0.96875 0.35227,0.616478 0.35227,1.409092 v 1.996213 q 0,0.782829 -0.35227,1.418877 -0.34249,0.636048 -0.95896,0.998106 -0.61648,0.371844 -1.38952,0.371844 -0.75348,0 -1.3406,-0.283775 -0.58712,-0.283776 -0.98832,-0.792614 -0.0881,-0.09785 -0.0881,-0.225064 0,-0.14678 0.137,-0.254419 0.0978,-0.0685 0.21527,-0.0685 0.0881,0 0.17614,0.03914 0.0881,0.04893 0.137,0.117424 0.29356,0.371844 0.74368,0.577336 0.45013,0.205493 1.01768,0.205493 0.54798,0 0.98832,-0.27399 0.45013,-0.264205 0.70455,-0.753473 0.25442,-0.479482 0.25442,-1.105745 v -0.440341 q -0.29356,0.557765 -0.83176,0.880682 -0.53819,0.313131 -1.22317,0.313131 -0.76326,0 -1.36995,-0.342487 -0.59691,-0.352273 -0.93939,-0.968751 -0.3327,-0.626263 -0.3327,-1.409091 0,-0.792614 0.35227,-1.409092 0.35227,-0.626263 0.96875,-0.96875 0.62626,-0.352273 1.3993,-0.352273 z m 0,4.765469 q 0.56756,0 1.01768,-0.254419 0.45013,-0.264205 0.70455,-0.724117 0.25442,-0.469697 0.25442,-1.056818 0,-0.587122 -0.25442,-1.047034 -0.25442,-0.469697 -0.70455,-0.733901 -0.45012,-0.264205 -1.01768,-0.264205 -0.57733,0 -1.02746,0.264205 -0.45012,0.264204 -0.70454,0.733901 -0.25442,0.459912 -0.25442,1.047034 0,0.587121 0.25442,1.056818 0.25442,0.459912 0.70454,0.724117 0.45013,0.254419 1.02746,0.254419 z"
         style="font-style:normal;font-variant:normal;font-weight:normal;font-stretch:normal;font-family:Comfortaa;-inkscape-font-specification:Comfortaa;letter-spacing:0px;fill:#333333;stroke-width:0.24463394"
         id="path4520" />
      <path
         d="m -97.341531,24.872674 q -0.773044,0 -1.399306,-0.352272 -0.616478,-0.352273 -0.968751,-0.968751 -0.352272,-0.626263 -0.352272,-1.399306 0,-0.773044 0.352272,-1.399306 0.352273,-0.626263 0.968751,-0.978536 0.626262,-0.352273 1.399306,-0.352273 0.773043,0 1.389521,0.352273 0.616477,0.352273 0.96875,0.978536 0.362058,0.626262 0.362058,1.399306 0,0.773043 -0.352272,1.399306 -0.352273,0.616478 -0.978536,0.968751 -0.616478,0.352272 -1.389521,0.352272 z m 0,-0.684975 q 0.567551,0 1.017677,-0.264204 0.450127,-0.264205 0.704546,-0.724117 0.254419,-0.469697 0.254419,-1.047033 0,-0.587122 -0.254419,-1.047034 -0.254419,-0.469697 -0.704546,-0.733901 -0.450126,-0.264205 -1.017677,-0.264205 -0.557766,0 -1.017677,0.264205 -0.450127,0.264204 -0.714332,0.733901 -0.254419,0.459912 -0.254419,1.047034 0,0.577336 0.254419,1.047033 0.264205,0.459912 0.714332,0.724117 0.459911,0.264204 1.017677,0.264204 z"
         style="font-style:normal;font-variant:normal;font-weight:normal;font-stretch:normal;font-family:Comfortaa;-inkscape-font-specification:Comfortaa;letter-spacing:0px;fill:#333333;stroke-width:0.24463394"
         id="path4522" />
      <path
         d="m -92.970075,24.980313 q -0.234849,0 -0.4012,-0.166351 -0.166351,-0.166351 -0.166351,-0.401199 0,-0.244634 0.166351,-0.410985 0.176137,-0.166352 0.4012,-0.166352 0.234849,0 0.4012,0.176137 0.166351,0.166351 0.166351,0.4012 0,0.234848 -0.166351,0.401199 -0.166351,0.166351 -0.4012,0.166351 z"
         style="font-style:normal;font-variant:normal;font-weight:normal;font-stretch:normal;font-family:Comfortaa;-inkscape-font-specification:Comfortaa;letter-spacing:0px;fill:#333333;stroke-width:0.24463394"
         id="path4524" />
    </g>
    <g
       style="stroke-width:0.5291667;stroke-miterlimit:3.090909;stroke-dasharray:none"
       id="g4763"
       transform="translate(-237.9014,-53.842387)">
      <circle
         style="fill:#ffdd55;fill-opacity:1;stroke:#333333;stroke-width:0.5291667;stroke-linecap:square;stroke-linejoin:bevel;stroke-miterlimit:3.090909;stroke-dasharray:none;stroke-dashoffset:0;stroke-opacity:1"
         id="circle4741"
         cx="86.466774"
         cy="79.771713"
         r="0.92131698" />
      <circle
         r="0.92131698"
         cy="75.942986"
         cx="86.466774"
         id="circle4743"
         style="fill:#ff9955;fill-opacity:1;stroke:#333333;stroke-width:0.5291667;stroke-linecap:square;stroke-linejoin:bevel;stroke-miterlimit:3.090909;stroke-dasharray:none;stroke-dashoffset:0;stroke-opacity:1" />
      <circle
         style="fill:none;fill-opacity:1;stroke:#333333;stroke-width:0.5291667;stroke-linecap:square;stroke-linejoin:bevel;stroke-miterlimit:3.090909;stroke-dasharray:none;stroke-dashoffset:0;stroke-opacity:1"
         id="circle4745"
         cx="86.466774"
         cy="71.579727"
         r="0.92131698" />
      <circle
         style="fill:#ff5555;fill-opacity:1;stroke:#333333;stroke-width:0.5291667;stroke-linecap:square;stroke-linejoin:bevel;stroke-miterlimit:3.090909;stroke-dasharray:none;stroke-dashoffset:0;stroke-opacity:1"
         id="circle4747"
         cx="82.607033"
         cy="75.942986"
         r="0.92131698" />
      <circle
         style="fill:#00ffff;fill-opacity:1;stroke:#333333;stroke-width:0.5291667;stroke-linecap:square;stroke-linejoin:bevel;stroke-miterlimit:3.090909;stroke-dasharray:none;stroke-dashoffset:0;stroke-opacity:1"
         id="circle4749"
         cx="80.513626"
         cy="79.771713"
         r="0.92131698" />
      <path
         style="fill:none;stroke:#333333;stroke-width:0.5291667;stroke-linecap:butt;stroke-linejoin:miter;stroke-miterlimit:3.090909;stroke-dasharray:none;stroke-opacity:1"
         d="M 86.428283,78.936724 V 76.903542"
         id="path4751"
         inkscape:connector-curvature="0"
         sodipodi:nodetypes="cc" />
      <path
         inkscape:connector-curvature="0"
         id="path4753"
         d="M 86.428283,74.965838 V 72.460186"
         style="fill:none;stroke:#333333;stroke-width:0.5291667;stroke-linecap:butt;stroke-linejoin:miter;stroke-miterlimit:3.090909;stroke-dasharray:none;stroke-opacity:1" />
      <path
         sodipodi:nodetypes="cc"
         style="fill:none;stroke:#333333;stroke-width:0.5291667;stroke-linecap:butt;stroke-linejoin:miter;stroke-miterlimit:3.090909;stroke-dasharray:none;stroke-opacity:1"
         d="m 83.54455,75.978421 h 1.972563"
         id="path4755"
         inkscape:connector-curvature="0" />
      <path
         style="fill:none;stroke:#333333;stroke-width:0.5291667;stroke-linecap:round;stroke-linejoin:miter;stroke-miterlimit:3.090909;stroke-dasharray:none;stroke-opacity:1"
         d="m 84.002098,73.129547 h 0.985557 v 0.985557"
         id="path4757"
         inkscape:connector-curvature="0" />
      <path
         inkscape:connector-curvature="0"
         id="path4759"
         d="m 85.068266,73.143599 -1.901693,1.901692"
         style="fill:none;stroke:#333333;stroke-width:0.5291667;stroke-linecap:butt;stroke-linejoin:miter;stroke-miterlimit:3.090909;stroke-dasharray:none;stroke-opacity:1" />
      <path
         sodipodi:nodetypes="cc"
         inkscape:connector-curvature="0"
         id="path4761"
         d="M 80.981398,78.966797 82.233443,76.76981"
         style="fill:none;stroke:#333333;stroke-width:0.5291667;stroke-linecap:butt;stroke-linejoin:miter;stroke-miterlimit:3.090909;stroke-dasharray:none;stroke-opacity:1" />
    </g>
  </g>
</svg>
